<?xml version="1.0"?>
<svg version="1.1" xmlns="http://www.w3.org/2000/svg" width="184" height="46" style=""><path fill="#03dcfd" d="M24.66,40.332q-1.204,0-1.204-0.84q0-1.456,3.71-6.678t4.494-6.426q1.708-2.632,1.708-3.584q0-0.476-0.364-0.588q-0.672-0.28-1.568-0.28q-3.08,0-7.868,3.276q-3.136,2.184-5.194,5.11t-2.058,4.83q0,1.372,1.12,1.568q0.448,0.084,0.896,0.084q1.428,0,2.94-0.924q0.756-0.448,1.904-1.484l0.504-0.168q-0.532,1.008-2.226,2.044t-3.486,1.036q-0.42,0-0.98-0.112t-1.078-0.798t-0.518-1.806q0-4.396,8.288-10.332q1.68-1.204,3.976-2.086t4.172-0.882q0.952,0,1.834,0.364t0.882,1.218t-0.994,2.436t-3.108,4.452t-3.584,5.362t-1.47,3.472q0,0.476,0.392,0.476q0.756,0,2.828-1.568q4.928-3.752,11.592-12.18q1.064-1.344,1.708-1.344q0.252,0,0.252,0.252q0,0.112-0.084,0.28q0.028,0.084,0.028,0.168q0,0.588-0.672,1.596l-3.304,4.676q-2.016,2.912-3.556,5.516t-1.428,3.052l0.504-0.168q1.4-0.784,2.436-1.82q0.364-0.28,0.448-0.28l0.056,0.056q0,0.252-0.756,1.064q-1.96,1.708-2.8,1.708t-0.84-0.532t1.498-3.304t4.802-7.644q-0.56,0.672-1.764,1.988q-6.888,7.056-8.26,8.148q-2.044,1.596-3.808,1.596z M52.04876,39.464q-1.904,0-1.904-1.764q0-1.008,0.896-2.758t1.876-2.954q-1.736,0.84-4.004,3.038t-3.164,4.606q-0.14,0.224-0.476,0.224q-0.672,0-0.672-0.756q0.28-1.54,1.26-3.528q0.308-0.644,1.82-3.752q-2.184,1.428-3.71,3.066t-2.828,3.29t-1.47,1.652q-0.364,0-0.63-0.336t-0.266-0.672q0-0.504,1.456-3.696l-1.68,1.764q-0.616,0.616-0.77,0.616t-0.154-0.182t0.224-0.406q1.036-1.036,1.848-2.072t2.688-3.696q0.308-0.42,0.868-0.42t0.56,0.532q0,0.196-1.484,2.73t-1.652,3.178q1.148-1.26,3.444-3.388q3.444-3.192,4.536-3.192q0.336,0,0.616,0.196t0.28,0.434t-1.092,2.114q-1.064,1.932-1.176,2.296q3.108-2.604,3.108-2.632q2.632-2.044,3.78-2.044q0.336,0,0.63,0.21t0.294,0.49q0,0.056-1.82,2.366t-2.044,3.794q-0.056,0.504,0.196,0.756t0.91,0.252t1.932-0.91t2.59-2.45q0.504-0.56,0.686-0.56t0.182,0.14q0,0.196-0.252,0.448q-1.372,1.652-2.954,2.814t-2.478,1.162z M58.99752,40.164q-0.308,0-0.56-0.084q-1.792-0.504-1.792-2.016q0-1.96,2.464-4.536t4.424-2.576q0.644,0,1.05,0.35t0.406,0.854q0,1.568-2.366,2.996t-3.85,1.428q-0.224,0-0.392-0.056q-0.42,0.756-0.42,1.596q0,1.456,1.386,1.456t3.598-1.876q1.708-1.372,2.912-2.912q0.252-0.336,0.434-0.336t0.182,0.168t-0.224,0.476q-1.512,1.988-3.64,3.528t-3.612,1.54z M64.28952,32.1q0-0.336-0.714-0.336t-2.03,1.092q-1.764,1.456-2.744,3.052q0.168,0.056,0.364,0.056q1.064,0,2.842-1.134t2.226-2.478q0.056-0.14,0.056-0.252z M71.71428,39.94q-2.1,0-2.1-2.324q0-1.176,0.616-2.576t1.344-2.352q-0.14,0.028-0.364,0.028q-0.672,0-1.12-0.952l-2.072,2.688q-1.736,2.156-2.016,2.156q-0.14,0-0.14-0.112q0-0.28,0.476-0.812q2.436-2.828,3.444-4.788q0.644-2.436,1.624-2.436q0.644,0,0.644,0.56t-0.7,1.428l-0.672,0.896q0,0.588,0.868,0.588q0.504,0,1.12-0.364l0.728-0.448q0.056-0.028,0.28-0.028t0.476,0.28t0.168,0.504l-1.932,2.436q-1.792,2.296-1.792,3.626t1.232,1.33q1.288,0,3.164-1.372q1.12-0.812,2.044-1.82q0.868-1.008,0.952-1.008q0.196,0,0.196,0.21t-0.252,0.49l-0.896,1.008q-0.756,0.784-1.68,1.512q-2.212,1.652-3.64,1.652z M99.8358,32.772q2.716,0.084,2.87,0.084l0.182,0q0.672-0.056,0.672,0.196q0,0.392-1.092,0.392l-2.38-0.056q-0.728,0.056-0.868,0.14q-1.176,1.456-3.164,4.214t-1.988,3.29q0,0.224,0.504-0.112q0.308,0,0.308,0.084q0,0.14-0.616,0.42l-0.784,0.42q-0.532,0.448-1.218,0.448t-0.63-0.336q0.028-0.672,1.988-3.402t4.06-5.194q-2.016,0.364-3.08,0.364q-0.112-0.028-0.112-0.182t0.336-0.434t0.714-0.28t1.218-0.028l1.428,0q0.952-1.288,4.228-5.936q1.344-1.932,1.344-3.192q0-1.96-2.912-1.96q-2.268,0-5.334,1.26t-5.642,3.444q-1.82,1.512-2.884,3.276t-1.064,3.136q0,2.212,2.632,2.212q0.224,0,0.476-0.028q1.708-0.14,3.234-1.946t1.526-3.038q0-0.112-0.028-0.252q0.728,0.14,0.728,0.868q0,1.204-1.568,2.828q-2.128,2.212-4.928,2.212q-1.54,0-2.408-0.812t-0.868-2.212q0-3.304,4.032-6.664q2.912-2.38,6.188-3.598t5.698-1.218t3.612,0.7t1.19,1.946t-1.092,2.814q-0.644,1.036-4.508,6.132z M113.28056,31.428l0.392-0.084q0.308,0,0.588,0.252t0.28,0.392t-1.736,2.702t-1.736,3.57q0,0.084,0.028,0.168q0.14,0.644,0.616,0.644q1.456,0,5.32-4.816q0.084-0.112,0.196-0.112t0.112,0.21t-0.252,0.546q-3.584,4.788-5.46,4.788q-0.252,0-0.476-0.084q-1.232-0.476-1.232-1.848q0-0.476,0.112-0.952l-1.736,1.68q-1.652,1.456-2.394,1.456t-1.414-0.476q-0.756-0.56-0.756-1.484q0-2.044,2.856-4.886t5.236-2.842q0.924,0,1.232,0.644q0.084,0.224,0.14,0.378t0.084,0.154z M104.90856,38.316q0,1.008,0.7,1.008q1.624,0,4.424-3.556l2.968-4.088q-0.224-0.392-0.728-0.392q-1.708,0-4.536,2.646t-2.828,4.382z M122.46932,39.94q-2.1,0-2.1-2.324q0-1.176,0.616-2.576t1.344-2.352q-0.14,0.028-0.364,0.028q-0.672,0-1.12-0.952l-2.072,2.688q-1.736,2.156-2.016,2.156q-0.14,0-0.14-0.112q0-0.28,0.476-0.812q2.436-2.828,3.444-4.788q0.644-2.436,1.624-2.436q0.644,0,0.644,0.56t-0.7,1.428l-0.672,0.896q0,0.588,0.868,0.588q0.504,0,1.12-0.364l0.728-0.448q0.056-0.028,0.28-0.028t0.476,0.28t0.168,0.504l-1.932,2.436q-1.792,2.296-1.792,3.626t1.232,1.33q1.288,0,3.164-1.372q1.12-0.812,2.044-1.82q0.868-1.008,0.952-1.008q0.196,0,0.196,0.21t-0.252,0.49l-0.896,1.008q-0.756,0.784-1.68,1.512q-2.212,1.652-3.64,1.652z M136.33408,33.864q0,0.98-1.876,3.276q-2.212,2.716-3.78,2.716l-0.448,0q-0.728,0-1.148-0.756q-0.336-0.532-0.336-1.176q0-1.68,2.45-4.718t3.962-3.038q1.428,0,1.428,1.512q0,0.392-0.14,1.008q0.028,0.084,0.532,0.084t1.54-0.532q-0.028,0.476-2.212,1.372q0.028,0.112,0.028,0.252z M134.51408,32.408q-0.952,0-2.702,2.24t-1.75,3.304t0.672,1.064q1.204,0,3.052-2.184t1.848-3.136q-0.448-0.252-1.12-1.288z M145.43884,33.864q0,0.98-1.876,3.276q-2.212,2.716-3.78,2.716l-0.448,0q-0.728,0-1.148-0.756q-0.336-0.532-0.336-1.176q0-1.68,2.45-4.718t3.962-3.038q1.428,0,1.428,1.512q0,0.392-0.14,1.008q0.028,0.084,0.532,0.084t1.54-0.532q-0.028,0.476-2.212,1.372q0.028,0.112,0.028,0.252z M143.61884,32.408q-0.952,0-2.702,2.24t-1.75,3.304t0.672,1.064q1.204,0,3.052-2.184t1.848-3.136q-0.448-0.252-1.12-1.288z M150.6796,38.456q-1.792,1.232-2.856,1.232q-1.372,0-1.372-1.512q0-1.176,1.484-2.912q1.316-1.456,2.604-2.184q3.08-1.708,5.012-1.708q0.616,0,0.756,0.476l0,0.896q0.476,0.364,0.476,0.462t-0.084,0.21l-2.212,2.1q-2.1,2.156-2.884,3.948q0.168-0.056,0.924-0.056t1.176,0.658t0.42,1.302q0,1.344-1.176,3.164q-1.288,2.044-2.8,2.044q-1.456,0-1.456-2.156q0-1.316,0.7-2.968z M154.8796,32.772q-1.428,0-4.298,1.862t-3.262,3.794q-0.028,0.084-0.028,0.168q0,0.532,0.672,0.532q1.4,0,3.752-2.436l3.528-3.752q-0.056-0.168-0.364-0.168z M151.3236,40.052q-0.532,0.84-1.148,2.408t-0.616,2.128t0.224,0.994t0.616,0.434q1.036,0,1.82-1.792t0.784-2.688t-0.392-1.176t-1.288-0.308z"/><path fill="#" d=""/></svg>
